# xmcd CD database file
#
# Track frame offsets:
#	225
#	16318
#	49752
#	65829
#	89752
#	118136
#	143140
#	164624
#	188771
#	209422
#
# Disc length: 3036 seconds
#
# Revision: 0
# Processed by: cddbd v1.5.2PL0 Copyright (c) Steve Scherf et al.
# Submitted via: CDex 1.51
#
DISCID=990bd90a
DTITLE=Michael Garrick 6tet - Promises
DYEAR=1965
DGENRE=Jazz
TTITLE0=Promises
TTITLE1=Parting is such
TTITLE2=I've got rhythm
TTITLE3=A thing of beauty
TTITLE4=Merlin the Wizard
TTITLE5=Second Coming
TTITLE6=Requiem
TTITLE7=Leprechaun Leap
TTITLE8=Portrait of a Young Lady
TTITLE9=Song by the Sea
EXTD=YEAR: 1965
EXTT0=
EXTT1=
EXTT2=
EXTT3=
EXTT4=
EXTT5=
EXTT6=
EXTT7=
EXTT8=
EXTT9=
PLAYORDER=
